<svg width="24" height="24" viewBox="0 0 24 24" fill="none" xmlns="http://www.w3.org/2000/svg">
<g clip-path="url(#clip0)">
<path d="M9.68503 11.9572L17.9785 3.66367C18.3617 3.2448 18.5742 2.69766 18.5742 2.12994C18.5742 1.56223 18.3617 1.01508 17.9785 0.596216C17.5597 0.21301 17.0125 0.000488281 16.4448 0.000488281C15.8771 0.000488281 15.3299 0.21301 14.9111 0.596216L5.14065 10.4802C4.75744 10.8991 4.54492 11.4463 4.54492 12.014C4.54492 12.5817 4.75744 13.1288 5.14065 13.5477L14.9111 23.3181C15.2982 23.7257 15.8267 23.9696 16.388 23.9998C16.67 24.0076 16.9501 23.9501 17.2063 23.8319C17.4625 23.7137 17.6879 23.5378 17.8649 23.3181C18.2481 22.8992 18.4606 22.3521 18.4606 21.7844C18.4606 21.2167 18.2481 20.6695 17.8649 20.2507L9.68503 11.9572Z" fill="white"/>
</g>
<defs>
<clipPath id="clip0">
<rect width="23.858" height="24" fill="white" transform="translate(23.8579 24) rotate(180)"/>
</clipPath>
</defs>
</svg>
