<svg width="289" height="321" viewBox="0 0 289 321" fill="none" xmlns="http://www.w3.org/2000/svg">
<path d="M7.94186 317.824C12.8059 320.704 18.9179 320.736 23.8459 317.952L256.006 187.36V304C256.006 312.832 263.174 320 272.006 320C280.838 320 288.006 312.832 288.006 304V15.9998C288.006 7.16779 280.838 -0.000213623 272.006 -0.000213623C263.174 -0.000213623 256.006 7.16779 256.006 15.9998V132.64L23.8459 2.04779C21.4139 0.67179 18.7259 -0.000213623 16.0059 -0.000213623C13.2219 -0.000213623 10.4059 0.735781 7.94186 2.17578C3.04586 5.05578 0.00585938 10.3038 0.00585938 15.9998V304C0.00585938 309.696 3.04586 314.944 7.94186 317.824ZM32.0059 43.3598L239.366 160L32.0059 276.64V43.3598Z" fill="white"/>
</svg>
