<svg width="24" height="24" viewBox="0 0 24 24" fill="none" xmlns="http://www.w3.org/2000/svg">
<g clip-path="url(#clip0)">
<path d="M14.1729 12.0428L5.87938 20.3363C5.49618 20.7552 5.28366 21.3023 5.28366 21.8701C5.28366 22.4378 5.49618 22.9849 5.87938 23.4038C6.29825 23.787 6.8454 23.9995 7.41311 23.9995C7.98083 23.9995 8.52797 23.787 8.94684 23.4038L18.7173 13.5198C19.1005 13.1009 19.313 12.5537 19.313 11.986C19.313 11.4183 19.1005 10.8712 18.7173 10.4523L8.94684 0.681889C8.55973 0.274284 8.03124 0.0303669 7.46992 0.000230789C7.18786 -0.00760269 6.90781 0.0498447 6.65162 0.168087C6.39543 0.286329 6.17002 0.46217 5.99299 0.681889C5.60979 1.10076 5.39727 1.6479 5.39727 2.21562C5.39727 2.78333 5.60979 3.33048 5.99299 3.74934L14.1729 12.0428Z" fill="white"/>
</g>
<defs>
<clipPath id="clip0">
<rect width="23.858" height="24" fill="white"/>
</clipPath>
</defs>
</svg>
