<svg width="59" height="55" viewBox="0 0 59 55" fill="none" xmlns="http://www.w3.org/2000/svg">
<path d="M49.9741 0.0830364C49.1928 0.161161 48.4845 0.348661 47.8647 0.640327C47.3699 0.874702 47.271 0.947618 46.8231 1.40074C45.5158 2.72366 44.8439 3.73408 44.0887 5.4997C43.6043 6.63511 42.9168 8.92157 42.9168 9.41636C42.9168 9.52053 42.8804 9.80699 42.8387 10.0466C42.7137 10.7549 42.5679 11.8278 42.4429 12.9424C42.4116 13.2289 42.3752 14.1872 42.3647 15.0778L42.3387 16.6924L42.1668 17.057C42.0731 17.2549 41.8752 17.583 41.7241 17.7861C41.5783 17.9841 41.4585 18.1768 41.4585 18.208C41.4585 18.2914 41.5575 18.3643 41.797 18.4372C42.271 18.5882 42.6304 18.9268 42.8699 19.4528C43.0158 19.7705 43.0991 20.1976 43.3335 21.8747C43.5262 23.2393 43.8543 25.2132 43.9637 25.6455C44.2502 26.7653 44.8179 27.807 45.4845 28.4216C46.2189 29.0986 47.7501 29.8747 49.0106 30.2132C49.3908 30.3174 49.5783 30.333 50.3647 30.333C51.3491 30.333 51.6147 30.2965 52.396 30.0413C53.5001 29.6872 54.2605 29.2028 55.2814 28.208C56.5001 27.0205 57.1511 25.7809 57.7657 23.4632C58.2032 21.8226 58.3386 21.2497 58.4636 20.4945C58.5834 19.7653 58.6407 19.3018 58.8126 17.6559C58.9064 16.7549 58.9064 11.4111 58.8126 10.5726C58.7761 10.2445 58.7084 9.65594 58.6668 9.27053C58.573 8.38511 58.5574 8.30699 58.4272 7.73407C58.0053 5.88511 57.4064 4.17678 56.8491 3.21845C56.4012 2.45803 55.8387 1.82262 55.2397 1.41116C54.823 1.11949 53.7501 0.63512 53.1772 0.473661C52.6616 0.333036 52.4376 0.286161 51.6147 0.161161C51.2137 0.0986614 50.2658 0.0569954 49.9741 0.0830364ZM51.8803 0.624702C52.896 0.806993 53.4637 0.999702 54.4116 1.46845C55.1928 1.85387 55.6876 2.28616 56.1564 2.98408C56.9064 4.09866 57.5782 5.9372 57.9949 8.0049C58.2761 9.38511 58.3647 10.3903 58.448 13.0466C58.5209 15.3643 58.5157 16.1247 58.4116 17.083C58.3699 17.4684 58.3126 18.0309 58.2814 18.333C58.0418 20.7341 57.7657 22.0361 56.9949 24.4736C56.5887 25.7549 55.8282 27.0778 55.0522 27.8591C54.0939 28.8226 52.7032 29.5778 51.4585 29.8122C50.8439 29.932 49.8543 29.9215 49.3126 29.7913C48.4585 29.5934 47.5366 29.2184 46.6095 28.6872C45.7397 28.1924 45.1668 27.5518 44.7606 26.5986C44.4012 25.7601 44.297 25.2757 43.8543 22.2653C43.5574 20.2497 43.4272 19.5934 43.2397 19.1976C43.047 18.7861 42.7189 18.4216 42.3595 18.2184L42.0887 18.0674L42.3283 17.6976C42.7606 17.0257 42.771 16.9893 42.7918 15.3643C42.8179 13.3018 42.9377 12.0986 43.3647 9.63511C43.6512 7.98407 43.9012 7.10386 44.4637 5.78616C45.1772 4.11428 45.8647 3.04658 46.9012 1.9997C47.5991 1.29137 47.8699 1.09345 48.4428 0.864286C49.3074 0.515327 50.7189 0.421577 51.8803 0.624702Z" fill="white"/>
<path d="M53.4113 12.9792C53.3019 13.0417 52.729 13.6146 51.9478 14.4427C51.6821 14.7187 51.4425 14.9479 51.4165 14.9479C51.3175 14.9479 51.2967 14.7448 51.3332 14.1458C51.3905 13.1615 51.229 12.7708 50.9269 13.1875L50.8071 13.3594V15.2344C50.8071 17.1927 50.8228 17.3438 51.0311 17.3438C51.2186 17.3438 51.2498 17.2344 51.2498 16.6042C51.2498 16.2552 51.2759 15.9375 51.3123 15.8594C51.4842 15.4844 52.6821 15.9062 53.4582 16.6198C53.7759 16.9115 53.9217 16.9375 53.9478 16.7083C53.9842 16.3958 53.3228 15.75 52.6196 15.4115C52.3748 15.2969 52.1873 15.1719 52.1873 15.1302C52.1873 15.0885 52.5311 14.6875 52.9582 14.2396C53.3801 13.7917 53.7342 13.3906 53.7394 13.349C53.7967 13.1042 53.5988 12.8802 53.4113 12.9792Z" fill="white"/>
<path d="M48.4008 13.0624C47.7966 13.2759 47.3695 13.6717 46.9268 14.4217C46.6351 14.9165 46.5414 15.2863 46.5726 15.828C46.6039 16.3436 46.7289 16.6613 47.0153 16.9478C47.2653 17.1978 47.4841 17.2603 47.9581 17.2238C48.9268 17.1509 49.9008 16.2499 50.281 15.0832C50.4321 14.6196 50.4477 14.4113 50.3435 14.0363C50.2185 13.5571 50.0154 13.2915 49.6352 13.0936C49.3643 12.9582 48.7393 12.9426 48.4008 13.0624ZM49.63 13.6821C50.1195 14.0519 50.1248 14.8332 49.6352 15.5571C49.0727 16.3905 48.4164 16.7603 47.7706 16.6144C47.4008 16.5311 47.2133 16.4061 47.0778 16.1301C46.9112 15.8124 46.9528 15.1353 47.156 14.7134C47.3695 14.2863 47.8643 13.8019 48.2289 13.6717C48.7654 13.479 49.3591 13.4842 49.63 13.6821Z" fill="white"/>
<path d="M18.2292 1.04677C17.2344 1.15094 16.099 1.48427 15.1302 1.94781C14.599 2.19781 13.7552 2.70823 12.6562 3.43219C11.9271 3.91135 10.9115 4.96864 10.5104 5.65614C10.4479 5.77073 10.2187 6.13531 9.99479 6.46864C9.36458 7.43218 8.76042 8.7551 8.46875 9.8176C8.39062 10.1041 8.24479 10.6093 8.14583 10.9374C7.84896 11.927 7.79687 12.3905 7.83333 13.7707C7.84896 14.4322 7.88542 15.1718 7.91146 15.4165C7.95312 15.802 7.94792 15.8645 7.86979 15.9113C7.66146 16.0363 7.33854 16.4426 7.14062 16.8124C6.69271 17.677 6.51042 18.7343 6.60937 19.8697C6.73437 21.2759 6.89062 21.8697 7.35417 22.7395C7.69792 23.3749 7.96354 23.729 8.57812 24.3488C9.14062 24.9217 9.43229 25.078 10.026 25.1301C10.2865 25.1509 10.5312 25.1405 10.6771 25.104C10.8073 25.0728 10.9427 25.0415 10.9792 25.0363C11.026 25.0311 11.1354 25.2915 11.2969 25.7811C11.5625 26.578 11.9844 27.5519 12.3229 28.1353C12.8073 28.9738 13.6094 29.9686 14.0937 30.3332L14.2969 30.4842V31.1405C14.2969 31.4999 14.3177 32.1717 14.3385 32.6301L14.3854 33.4634L14.1354 33.6144C13.8125 33.8176 13.0104 34.6144 12.8177 34.9321C12.6719 35.1717 12.6406 35.1874 12.3021 35.2759C12.099 35.328 11.8021 35.453 11.6302 35.5571C11.2969 35.7603 10.7865 36.0624 9.9375 36.5519C9.44792 36.8384 9.34896 36.8749 9.10417 36.8749C8.31771 36.8749 7.73437 37.2603 7.47396 37.9426L7.38542 38.1665L7.05729 38.1405C6.80729 38.1196 6.64583 38.1405 6.375 38.229C5.58333 38.4842 5.18229 38.7603 4.77083 39.3436C4.35937 39.9269 4.23437 40.2082 4.02083 41.0676C3.74479 42.1769 3.51562 42.7342 3.05729 43.4478C2.30208 44.5988 1.75521 45.6873 1.41146 46.7186C1.1875 47.3696 0.625 49.6092 0.625 49.828C0.625 49.9946 0.635417 49.9998 0.828125 49.9998C1.01042 49.9998 1.03125 49.9842 1.0625 49.8436C1.08854 49.6873 1.09896 49.6873 1.41667 49.6873C1.59896 49.6873 2.04167 49.703 2.40625 49.7238C3.02604 49.755 3.06771 49.7603 3.08333 49.8644C3.09375 49.953 3.14062 49.979 3.34896 49.9894C3.57812 50.005 3.59375 49.9946 3.59375 49.88V49.755L4.88021 49.7186C5.59375 49.6978 6.38542 49.6613 6.64062 49.63C7.98958 49.4894 8.02083 49.4842 8.02083 49.3644C8.02083 49.3228 7.75521 49.3175 7.125 49.3436C6.63021 49.3592 5.63021 49.3905 4.90625 49.4113L3.58854 49.4425L3.60417 49.2134L3.61979 48.9842L6.17187 48.953C8.52083 48.9217 9.23437 48.8957 9.5 48.8175C9.59896 48.7915 9.59896 48.7863 9.5 48.729C9.43229 48.6873 8.5625 48.6717 6.48437 48.6717H3.56771L3.55208 48.4842C3.54167 48.3853 3.5625 48.2342 3.59375 48.1561L3.64583 48.0155L5.40104 48.0467C7.16667 48.0832 8.55208 48.0311 8.65625 47.9269C8.73958 47.8436 8.38542 47.8228 5.89062 47.7655C4.64583 47.7342 3.61979 47.703 3.61458 47.6925C3.60417 47.6873 3.61458 47.5832 3.63021 47.4634L3.65625 47.2498L5.35937 47.2811C6.99479 47.3071 8.45312 47.2446 8.64062 47.1405C8.83333 47.0311 8.40104 47.005 6.11979 46.979L3.67187 46.953L3.6875 46.6925C3.69792 46.5467 3.72396 46.3488 3.74479 46.2498L3.78125 46.0676L5.52083 46.0311C7.41146 45.9894 8.56771 45.9269 8.625 45.8696C8.64583 45.8488 8.64583 45.8176 8.625 45.7915C8.60417 45.7707 7.51562 45.7498 6.20833 45.7446C4.09375 45.7342 3.82812 45.7238 3.83333 45.6509C3.84896 45.3436 3.85937 45.3071 3.97396 45.2655C4.03646 45.2394 5.55208 45.1978 7.34375 45.1665C9.14583 45.1353 10.6562 45.0884 10.7292 45.0623C10.8542 45.0155 10.8542 45.0103 10.651 44.9686C10.3958 44.9113 4.79687 44.9113 4.30729 44.9634C3.95833 45.0051 3.95833 44.9998 3.95833 44.8748C3.95833 44.8019 3.98437 44.6301 4.01042 44.4894L4.06771 44.2342L6.23437 44.1978C8.21354 44.1665 9.50521 44.104 9.76042 44.0311C9.82812 44.0051 9.83854 43.9842 9.79687 43.9426C9.71875 43.8644 8.57812 43.8644 5.97917 43.9269L4.11458 43.9686L4.15104 43.7967C4.16667 43.6978 4.20833 43.5155 4.23958 43.3853L4.29687 43.1509L4.92187 43.1561C5.26562 43.1613 6.36979 43.1717 7.36979 43.1821C9.10937 43.1978 9.45833 43.1769 9.48958 43.0467C9.51562 42.9582 8.88542 42.9321 6.56771 42.9113L4.36458 42.8905L4.39583 42.6196C4.45312 42.1457 4.26042 42.1873 6.33333 42.1873H8.17708L9.21875 42.7082C10.4271 43.3123 10.6094 43.3592 11.3281 43.2498C11.5885 43.2134 11.8802 43.1561 11.9792 43.1248C12.099 43.0884 12.9479 43.0728 14.3594 43.0728C15.6979 43.0728 16.5677 43.0571 16.5833 43.0259C16.6719 42.8905 15.9062 42.8123 14.4844 42.8123C13.6927 42.8123 13.1771 42.7915 13.2031 42.7655C13.2344 42.7394 13.5312 42.6144 13.8646 42.4842C14.1979 42.354 14.5417 42.2082 14.625 42.1665C14.75 42.104 14.8385 42.0988 15.1562 42.1457C15.4427 42.1873 15.599 42.1873 15.7708 42.1405L15.9948 42.0832L16.3698 42.3853C17.3646 43.203 18.1302 43.4998 19.6615 43.6821C20.0208 43.7238 20.0208 43.7238 20.0625 43.9061C20.1667 44.4061 20.349 47.078 20.3958 48.8644L20.4271 49.9998H20.651C20.7969 49.9998 20.8854 49.9738 20.901 49.9269C20.9167 49.8853 20.9115 49.3384 20.8854 48.7134C20.8594 48.0884 20.8385 47.0415 20.8333 46.3905V45.203L21.0312 45.3592C21.2708 45.5519 21.625 45.7134 21.9167 45.7603C22.0365 45.7759 22.1615 45.828 22.1979 45.8696C22.2917 45.9842 22.3906 47.4478 22.3958 48.7967V50.0103L22.6979 49.9842C22.8594 49.9634 23.1198 49.9373 23.2708 49.9165C23.4531 49.8957 23.5885 49.9061 23.6667 49.9425C23.7292 49.979 23.8646 49.9998 23.9635 49.9894L24.1406 49.9738V47.9425C24.1406 46.1144 24.1302 45.8957 24.0469 45.7342C24 45.6353 23.9583 45.5519 23.9583 45.5467C23.9583 45.5415 24.099 45.4478 24.2708 45.3436C24.8542 44.9842 25.1458 44.4373 25.0833 43.8071C25.0417 43.3488 24.849 42.9634 24.5521 42.7498L24.3229 42.5884L24.4115 42.453C24.4896 42.3436 24.5052 42.203 24.5052 41.6665C24.5 41.0728 24.4896 40.9894 24.3646 40.7134C24.2865 40.5519 24.1042 40.2863 23.9583 40.1353L23.6875 39.8488L24.0729 39.6561C24.2812 39.5519 24.5833 39.3749 24.7396 39.2707C25.1406 38.9946 25.8906 38.2342 26.099 37.8905C26.1927 37.7342 26.2917 37.604 26.3125 37.604C26.3333 37.604 26.3854 37.6561 26.4271 37.7186C26.4635 37.7863 26.6823 38.1301 26.901 38.4894C27.125 38.8488 27.4531 39.3176 27.6354 39.5363C27.8177 39.7603 27.9687 39.9634 27.9687 39.9894C27.9687 40.1196 27.2187 41.1561 26.9271 41.4217C26.625 41.703 26.0573 42.0728 25.75 42.1926C25.2344 42.3853 25.1927 42.4426 25.2708 42.8488C25.5208 44.1613 25.5885 45.4061 25.5208 47.5259C25.4948 48.4165 25.4531 49.3332 25.4375 49.5728L25.401 50.005L25.6562 49.9894L25.9115 49.9738L25.9427 49.3748C25.9635 49.0467 25.9948 47.979 26.0156 47.005C26.0573 45.1353 26.0052 44.2446 25.8021 43.2967C25.6667 42.6821 25.6615 42.7082 26.0156 42.5623C26.7604 42.2655 27.4896 41.6457 27.9896 40.8905C28.2969 40.4269 28.4115 40.3853 28.7083 40.6301C29.026 40.8853 29.724 41.2186 30.1042 41.3071C30.349 41.3592 30.7969 41.3801 31.6927 41.3801C32.9375 41.3801 32.9427 41.3801 33.3333 41.2342C34.0729 40.9582 34.8177 40.4894 35.3958 39.9373C35.5677 39.7707 35.7448 39.6353 35.7865 39.6353C35.8958 39.6353 36.0469 40.0936 36.3594 41.354C36.8542 43.3905 36.9271 43.8123 37.0312 45.3905C37.125 46.7967 37.2083 47.3123 37.4167 47.7082C37.6354 48.1248 37.8281 48.7082 37.9896 49.4269L38.1094 49.9738L38.3542 49.9894C38.4844 49.9998 38.5937 49.9946 38.5937 49.9842C38.5937 49.9738 38.5469 49.7342 38.4844 49.4478C38.349 48.7811 38.1094 48.078 37.8958 47.6821C37.6927 47.3123 37.6302 46.9582 37.5521 45.703C37.4583 44.1821 37.3958 43.703 37.1562 42.6301C36.9219 41.5623 36.625 40.3748 36.4792 39.9321C36.4115 39.7238 36.4062 39.6717 36.4635 39.5988C36.5625 39.4842 36.5885 38.5155 36.5104 38.1092C36.4115 37.5728 36.151 37.3176 35.625 37.2134C35.526 37.1926 35.375 37.1144 35.2865 37.0363C35.2031 36.9582 34.9531 36.7603 34.7344 36.5988C34.2969 36.2759 34.1146 36.0832 33.8698 35.6665C33.4479 34.953 32.7865 34.8749 31.8229 35.4217L31.4531 35.6301L31.0885 35.2915C30.5885 34.8332 30.1562 34.6978 29.6875 34.8644C29.6302 34.8853 29.5312 34.7499 29.349 34.4217C29.2083 34.1613 29.0521 33.9165 29 33.8749C28.9115 33.7915 28.3594 33.7238 27.3646 33.6769C26.875 33.6509 26.8229 33.6405 26.4792 33.4478C26.0677 33.2134 25.6458 33.0728 25.3646 33.0728H25.1719L25.1354 32.7967C25.1198 32.6509 25.1042 32.4269 25.1042 32.3071C25.1042 32.0936 25.1094 32.0884 25.5469 31.7915C26.4219 31.203 27.0104 30.6509 27.625 29.8436C28.5677 28.5988 29.6667 26.4217 30.0469 25.0467C30.3854 23.8124 30.5208 21.4217 30.5208 16.8228C30.5208 13.1301 30.5156 13.0572 30.0781 11.2759C29.974 10.8436 29.7031 9.91655 29.474 9.21343C28.724 6.90093 27.8906 5.48427 26.4531 4.08323C24.8437 2.52073 23.4844 1.70302 21.7448 1.2499C20.8802 1.02594 19.2812 0.93219 18.2292 1.04677ZM20.5937 1.5624C21.9271 1.70302 22.5833 1.90615 23.6719 2.51552C24.5833 3.03114 25.9271 4.13531 26.7344 5.03635C27.25 5.60927 27.9271 6.59364 28.1823 7.12489C28.9635 8.77072 29.4323 10.2707 29.9062 12.6718L30.0729 13.5155L30.0625 16.354C30.0469 20.6717 29.9583 22.8801 29.7604 24.1405C29.6146 25.0988 29.0677 26.5519 28.4271 27.7082C27.3958 29.5676 26.6875 30.4113 25.3021 31.453C24.2656 32.2238 23.7448 32.4426 22.651 32.5571C21.9687 32.6301 20.0521 32.578 19.6979 32.4738C19.5625 32.4374 19.2344 32.3644 18.9687 32.3176C18.7083 32.2655 18.4792 32.2134 18.4687 32.1926C18.4583 32.1769 18.8646 32.1665 19.375 32.1769C20.2917 32.1926 20.8542 32.1301 20.6771 32.0311C20.6354 32.0051 19.9323 31.9634 19.1198 31.9269L17.6406 31.8644L16.9583 31.5572C15.599 30.9374 15.3125 30.7551 14.2656 29.854C13.9948 29.6249 13.4375 29.0207 13.4375 28.9634C13.4375 28.9269 13.7396 28.9322 15.5365 29.0103C16.5 29.0467 17.25 29.0155 17.3385 28.9322C17.4271 28.8384 17.1354 28.8176 14.2031 28.7186L13.2292 28.6874L13.0156 28.3905L12.8073 28.0988L13.0312 28.0832C13.1562 28.0728 14.0885 28.0884 15.1042 28.1197C16.7344 28.1665 17.7031 28.1457 17.7917 28.0624C17.8802 27.9738 15.4375 27.8384 13.849 27.8436H12.6719L12.5052 27.5467C12.3073 27.1874 12.2969 27.0572 12.4635 27.104C12.526 27.1197 12.9531 27.1613 13.4115 27.1874C13.8698 27.2186 14.7083 27.2759 15.2812 27.3176C15.849 27.3592 16.8073 27.3957 17.4062 27.3957C18.4844 27.3957 18.9844 27.3384 18.9427 27.2186C18.9271 27.1769 18.401 27.1509 17.2083 27.1301C16.2656 27.1092 15.2135 27.0676 14.8698 27.0363C14.526 27.0103 13.7812 26.9686 13.2187 26.9478L12.1927 26.9113L12.0885 26.6509C12.026 26.5051 11.9844 26.3853 11.9896 26.3801C12 26.3749 13.1562 26.3905 14.5573 26.4217C17.0417 26.4738 17.6771 26.4582 17.5625 26.3436C17.4687 26.2499 15.9948 26.1822 13.9271 26.177L11.8854 26.1717L11.8021 25.9374C11.7552 25.8072 11.7187 25.6822 11.7187 25.6561C11.7187 25.6301 12.7292 25.6249 14.2083 25.6509C15.5729 25.677 16.9635 25.6978 17.2917 25.6978C18.0573 25.703 19.1458 25.6197 19.0521 25.5676C18.8698 25.4634 13.3021 25.3436 12.0833 25.4165L11.6406 25.4426L11.5521 25.2551C11.5052 25.1509 11.4479 24.9426 11.4271 24.7915L11.3906 24.5155L12.974 24.5467C13.8437 24.5676 15.0521 24.6092 15.651 24.6405C17.5885 24.7447 19.8646 24.604 18.6042 24.453C17.9479 24.3801 11.4375 24.2499 11.1615 24.3072C11.099 24.3228 11.0417 24.3801 11.0312 24.4374C11.0104 24.5884 10.6979 24.6874 10.2083 24.6978C9.88021 24.703 9.75521 24.6822 9.55208 24.5832C9.30208 24.4634 8.54167 23.7863 8.54167 23.6822C8.54167 23.6301 8.60937 23.6301 13.7135 23.7811C15.7396 23.8384 16.5781 23.8436 17.3073 23.802C17.8281 23.7707 18.2708 23.7238 18.2969 23.703C18.349 23.6509 13.2552 23.4738 9.83333 23.4061L8.22917 23.3749L8 23.0259C7.86979 22.8384 7.75 22.6145 7.72917 22.5311L7.69271 22.3801L8.02083 22.4113C8.20312 22.4322 8.44792 22.4478 8.57292 22.4478C8.79167 22.4478 8.80208 22.4582 8.93229 22.7082C9.09375 23.0259 9.27083 23.1249 9.67708 23.1249C10.0469 23.1249 10.2917 22.9842 10.4323 22.6926C10.5156 22.5103 10.5312 22.4999 10.7812 22.4999C11.6875 22.4999 14.026 22.6457 16.276 22.8384C17.2187 22.9217 18.3958 22.9374 18.5677 22.8697C18.7083 22.8124 18.1094 22.729 16.849 22.6249C16.3073 22.5832 15.6146 22.5207 15.3125 22.4947C14.25 22.4009 12.4687 22.2915 11.9479 22.2915C11.6615 22.2915 11.2083 22.2759 10.9531 22.2603L10.4792 22.2238L10.4219 22.0207C10.3437 21.7603 10.1302 21.6405 10.0208 21.7967C9.97917 21.854 9.95312 21.9217 9.96354 21.953C10.0781 22.2551 10.0937 22.2395 9.64062 22.2395C9.38542 22.2395 9.20833 22.2186 9.1875 22.1822C9.13021 22.0884 9.10417 21.4374 9.15104 21.3697C9.19792 21.302 9.40104 21.3072 12.4479 21.4582C13.9687 21.5363 17.276 21.5832 17.5833 21.5363L17.8385 21.4947L17.6042 21.4478C17.2135 21.3801 15.9427 21.2967 14.401 21.2499C12.4167 21.1874 10.2604 21.0936 10.1198 21.0676C10.0208 21.0415 10.0156 21.0259 10.0573 20.8645C10.0833 20.7655 10.099 20.5832 10.0937 20.4582C10.0781 20.2603 10.0885 20.2342 10.1823 20.2447C11.0625 20.328 18.2917 20.4217 18.3646 20.3488C18.3854 20.328 18.3906 20.302 18.375 20.2863C18.2917 20.203 17.2969 20.1457 15.0729 20.104C12.0156 20.0467 10.4479 19.9999 10.2135 19.953C10.0469 19.9217 10.026 19.8957 9.97396 19.6457C9.9375 19.4947 9.86979 19.2759 9.81771 19.1665C9.76562 19.052 9.73958 18.9426 9.75521 18.9218C9.79167 18.8853 11.3229 18.9634 13.0208 19.0884C14.0365 19.1613 17.8229 19.1978 18.0625 19.1353C18.2292 19.0884 18.2031 19.0259 18.0104 18.9895C17.9167 18.9738 16.9271 18.9374 15.8073 18.9061C14.6927 18.8749 13.4583 18.828 13.0729 18.802C11.7292 18.7082 10.8542 18.6509 10.1979 18.6145L9.54167 18.5832L9.29687 18.2186L9.05208 17.8488L9.71875 17.8853C10.2135 17.9113 10.4115 17.9426 10.4792 18.0051C10.5625 18.078 10.5833 18.078 10.6979 17.9999C10.8385 17.9113 10.6198 17.9061 13.776 18.1249C15.1771 18.2238 16.5365 18.3332 16.7344 18.3593C16.8437 18.3749 16.9271 18.3645 16.9271 18.3384C16.9271 18.2759 16.599 18.177 16.4062 18.177C16.3333 18.177 15.9948 18.1301 15.651 18.0728C14.9062 17.953 14.3177 17.8957 12.7865 17.7863C12.1562 17.7447 11.4479 17.6978 11.2187 17.677L10.7917 17.6457L10.6354 17.328C10.5469 17.1509 10.4844 16.9947 10.5 16.9843C10.5104 16.9686 10.7292 16.9895 10.9792 17.0207C11.4948 17.0884 12.5052 17.1613 14.0885 17.2395C14.6927 17.2707 15.3958 17.3176 15.651 17.3436C15.9115 17.3645 16.25 17.3697 16.4062 17.3488C16.6875 17.3176 16.6927 17.3176 16.5365 17.2551C16.2552 17.1457 15.0521 17.0259 13.2292 16.9218C12.2396 16.8645 11.1458 16.7915 10.7917 16.7551C10.1823 16.6874 10.1458 16.677 9.98958 16.5207C9.89583 16.4322 9.83333 16.3488 9.84896 16.3332C9.88021 16.302 12.5781 16.3905 13.8281 16.4634C14.9167 16.5259 15.3073 16.5155 15.3281 16.4374C15.3594 16.3072 14.4635 16.2134 12.625 16.1457C11.9062 16.1197 11.1667 16.0728 10.9844 16.0415C10.8021 16.0155 10.3125 15.9738 9.89583 15.9582C9.34896 15.9374 9.0625 15.9009 8.86458 15.828C8.71354 15.7759 8.54167 15.729 8.48958 15.729C8.40104 15.729 8.38542 15.6926 8.38542 15.4634V15.1978L8.89583 15.229C9.17187 15.2447 9.90625 15.2811 10.5208 15.3124C11.6771 15.3645 12.5 15.4165 13.9219 15.5259C14.724 15.5884 14.8698 15.578 14.7552 15.4634C14.6458 15.354 14.0833 15.2603 13.0469 15.1822C12.474 15.1405 11.6771 15.078 11.276 15.0468C10.875 15.0155 10.0573 14.979 9.45312 14.9634L8.35937 14.9426L8.34375 14.6509L8.32812 14.3593L8.60417 14.3957C9.60417 14.5207 13.6719 14.4738 14.8594 14.3228C15.2292 14.2759 15.3073 14.2499 15.2396 14.177C15.2187 14.1561 13.7292 14.1509 11.9375 14.1561C10.1406 14.1665 8.58854 14.1613 8.48437 14.1405C8.29687 14.104 8.29687 14.104 8.26562 13.7863C8.25 13.6093 8.25 13.453 8.27083 13.4322C8.29167 13.4165 9.93229 13.427 11.9167 13.453C15.3854 13.4947 16.0365 13.479 16.0781 13.354C16.1198 13.2343 15.5885 13.2134 12.2396 13.1978C10.3646 13.1926 8.70312 13.1822 8.55729 13.1822L8.28125 13.177V12.8853V12.5936L12.9062 12.604C15.4479 12.6145 17.5521 12.6145 17.5781 12.604C17.7865 12.5624 17.0885 12.4843 15.7812 12.4165C14.0312 12.3176 11.0781 12.2968 9.43229 12.3645L8.31771 12.4113L8.34896 12.0988C8.36979 11.927 8.39583 11.7499 8.41667 11.703C8.44792 11.6197 8.66667 11.6145 11.2187 11.6405C12.7396 11.6509 14.5729 11.6978 15.2865 11.7395C16.0052 11.7863 16.8333 11.8332 17.1354 11.854C17.4375 11.8697 17.9167 11.927 18.1979 11.9843C18.4792 12.0363 18.7604 12.0832 18.8229 12.0832C18.9271 12.078 18.9271 12.078 18.8333 12.0051C18.651 11.8697 17.3333 11.6353 16.0417 11.5155C15.0312 11.4218 12.1771 11.3436 10.349 11.3645C8.81771 11.3749 8.54167 11.3697 8.54167 11.3072C8.54167 11.2655 8.57812 11.1093 8.625 10.9634L8.71354 10.6926L9.02604 10.6561C9.51042 10.6093 11.2812 10.6197 12.3177 10.6822C13.2292 10.7343 14.1562 10.802 16.1458 10.9582C17.2969 11.052 18.5937 11.0884 18.5937 11.0363C18.5937 10.9166 18.0365 10.8072 17.1615 10.7551C16.875 10.7343 16.1146 10.677 15.4687 10.6249C12.599 10.3801 10.9062 10.3072 9.76042 10.3749C9.26042 10.4061 8.83854 10.4166 8.82292 10.4009C8.78125 10.3593 8.96354 9.72385 9.03125 9.66135C9.11458 9.58322 13.3281 9.66135 14.2969 9.7603C14.7292 9.80197 15.5469 9.89572 16.1198 9.96864C17.7448 10.1718 18.3177 10.2186 18.599 10.1822C18.8698 10.1457 18.9375 10.0728 18.7396 10.0311C18.3542 9.9478 17.9635 9.89051 17.3177 9.8176C16.9167 9.77593 16.2396 9.6926 15.8073 9.6353C14.0521 9.40614 13.3333 9.36447 11.1875 9.36968C9.89062 9.36968 9.11458 9.35405 9.11458 9.3228C9.11458 9.23947 9.46875 8.39051 9.70312 7.91655L9.92187 7.47385L11.3802 7.48947C13.3698 7.51031 14.6615 7.58322 15.651 7.73947C16.9531 7.9426 17.8333 7.95822 17.2812 7.76551C17.0521 7.68218 15.4687 7.41656 14.8177 7.34885C14.1667 7.28114 13.3281 7.24468 11.7969 7.21343C10.5677 7.18739 10.1562 7.15614 10.1562 7.09364C10.1562 7.07281 10.2187 6.96864 10.2917 6.85926C10.3854 6.71864 10.4531 6.66656 10.5104 6.6926C10.6667 6.74989 12.5312 6.8176 14.4792 6.83322C16.0417 6.84364 16.4948 6.83322 16.7448 6.77593L17.0573 6.69781L16.8229 6.65614C16.6927 6.6301 15.2448 6.59364 13.6042 6.5676C11.9635 6.54156 10.6042 6.51031 10.5885 6.48948C10.5677 6.47385 10.6458 6.32281 10.7604 6.16135L10.9687 5.86448L14.0417 5.84885C17.0885 5.82801 17.6042 5.80718 17.6406 5.69781C17.6771 5.58323 16.9115 5.56239 14.0521 5.60406C11.8229 5.6301 11.1979 5.62489 11.1979 5.57802C11.1979 5.49468 11.4635 5.10927 11.6302 4.95823C11.7552 4.83843 11.7917 4.83323 12.4583 4.84885C13.4896 4.87489 17.3802 4.78114 17.4583 4.73427C17.5104 4.69781 17.5104 4.67698 17.4583 4.62489C17.4062 4.57281 16.8229 4.55198 14.7656 4.54156C12.6719 4.52594 12.1354 4.51031 12.1354 4.45302C12.1354 4.41656 12.2448 4.30198 12.3802 4.19781C12.5937 4.03114 12.6562 4.01031 12.9375 4.0051C13.1146 4.0051 14.25 3.98948 15.4583 3.97906C16.6719 3.96864 17.6875 3.9426 17.7187 3.92698C17.9323 3.79677 17.0156 3.70302 15.3906 3.6926C14.7917 3.68739 14.0521 3.67177 13.75 3.65094L13.2031 3.61969L13.6406 3.33844L14.0729 3.06239L15.3073 3.09364C15.9844 3.11448 16.9167 3.15094 17.3802 3.18219C18.1875 3.23427 18.4375 3.22385 18.4375 3.1301C18.4375 3.07802 18.1146 3.04156 17.0573 2.96864C16.6302 2.9426 16.151 2.89052 15.9948 2.86448C15.8385 2.83323 15.5677 2.81239 15.3958 2.80719C15.2187 2.80719 14.974 2.78635 14.8437 2.77073L14.6094 2.73427L14.901 2.5624L15.1927 2.39573H16.099C16.9896 2.39573 18.0885 2.4999 18.2812 2.60406C18.4219 2.67698 18.5417 2.66656 18.5417 2.57802C18.5417 2.47385 18.4167 2.41656 18.0208 2.34365C17.5521 2.2499 17.4896 2.20823 17.7656 2.16135C18.0573 2.11448 18.3333 1.9999 18.3333 1.93219C18.3333 1.84365 18.0677 1.86448 17.2135 2.0051C16.4115 2.13531 15.875 2.17177 15.9687 2.08844C15.9948 2.0624 16.2396 1.97385 16.5104 1.88531C17.8437 1.46344 18.8854 1.3801 20.5937 1.5624ZM9.01042 16.3801C9.15625 16.453 9.27083 16.5363 9.27083 16.5676C9.27083 16.5988 9.23437 16.6093 9.1875 16.5936C9.14062 16.578 8.82292 16.5624 8.47396 16.5624L7.83854 16.5572L8.01042 16.4061C8.15625 16.2707 8.21875 16.2499 8.46354 16.2499C8.67187 16.2499 8.82812 16.2863 9.01042 16.3801ZM9.39583 16.8697C9.72917 16.9061 9.77083 16.9218 9.9375 17.1145C10.0312 17.2238 10.151 17.3853 10.1927 17.4686L10.2708 17.6197L8.82292 17.5884C8.02604 17.5676 7.36979 17.5415 7.35417 17.5311C7.32292 17.4947 7.4375 17.1822 7.55208 16.9895L7.65625 16.8228L8.34375 16.828C8.72396 16.828 9.19792 16.8436 9.39583 16.8697ZM7.96354 17.8436C7.97396 17.854 7.95312 17.9009 7.91667 17.9426C7.88021 17.9895 7.81771 18.1353 7.78646 18.2707L7.72396 18.5155L7.39583 18.5311L7.07292 18.5468L7.10417 18.3488C7.125 18.2395 7.16667 18.0624 7.19271 17.953L7.24479 17.7551L7.59375 17.7863C7.78646 17.8072 7.95312 17.8332 7.96354 17.8436ZM8.82292 18.2915C8.9375 18.4218 8.99479 18.5259 8.96354 18.5572C8.9375 18.5832 8.74479 18.5884 8.51562 18.5676L8.11458 18.5259L8.14583 18.3645C8.21875 18.0051 8.54687 17.9686 8.82292 18.2915ZM7.59375 18.7811C7.6875 18.802 7.77083 18.8593 7.80729 18.9374C7.875 19.0884 8 19.0988 8.07292 18.9582C8.125 18.8593 8.17187 18.854 8.66146 18.8645L9.19271 18.8801L9.36458 19.2186C9.45833 19.4061 9.54687 19.6405 9.5625 19.7395L9.59375 19.9217L8.34896 19.9061C7.66667 19.8957 7.09896 19.8749 7.08854 19.8645C7.04687 19.828 7.01562 19.0207 7.05208 18.8853C7.07812 18.7707 7.11458 18.7499 7.26042 18.7499C7.35417 18.7499 7.50521 18.7655 7.59375 18.7811ZM9.08854 20.1978L9.60937 20.2342V20.4165V20.5988L9.38021 20.5832C9.08333 20.5572 8.88021 20.6509 8.78125 20.8488L8.70312 21.0155H7.95833H7.21354L7.14583 20.6249C7.11458 20.4113 7.09375 20.2082 7.10417 20.1822C7.125 20.1249 8.10937 20.1353 9.08854 20.1978ZM8.50521 21.2811L8.69792 21.3176V21.7499V22.1874H8.13021H7.5625L7.44792 21.9165C7.38542 21.7655 7.31771 21.552 7.30208 21.4478L7.27604 21.2499H7.79167C8.07812 21.2499 8.39583 21.2655 8.50521 21.2811ZM10 22.5415C10 22.6405 9.85937 22.7082 9.66146 22.7082C9.46354 22.7082 9.32292 22.6405 9.32292 22.5415C9.32292 22.5207 9.47396 22.4999 9.66146 22.4999C9.84896 22.4999 10 22.5207 10 22.5415ZM14.9896 31.0311C15 31.0676 14.9531 31.0936 14.875 31.0936C14.7656 31.0936 14.7396 31.0676 14.7396 30.9582C14.7396 30.828 14.7448 30.8228 14.8542 30.8957C14.9167 30.9374 14.9792 30.9999 14.9896 31.0311ZM15.8333 31.4842C16.026 31.5832 16.2031 31.6822 16.2187 31.7082C16.2448 31.7499 14.8437 31.8384 14.8073 31.8019C14.7969 31.7967 14.776 31.6769 14.7604 31.5467L14.724 31.3019H15.099C15.4219 31.3019 15.5208 31.328 15.8333 31.4842ZM17.4219 32.2603L17.8906 32.4946H16.3958C15.5677 32.4999 14.8802 32.5051 14.8594 32.5103C14.8333 32.5207 14.8125 32.4165 14.8021 32.2759L14.7865 32.0311H15.8698H16.9531L17.4219 32.2603ZM24.7031 32.9217C24.724 33.1613 24.75 34.1926 24.7604 35.2082C24.7708 36.2238 24.7812 37.0884 24.7865 37.1196C24.7969 37.2238 24.9896 37.1978 25.0469 37.0884C25.0781 37.0311 25.1198 36.8228 25.1354 36.6196C25.1562 36.4165 25.1875 36.2499 25.2083 36.2499C25.2344 36.2499 25.4062 36.4165 25.5937 36.6196C25.8125 36.8592 25.9375 37.0363 25.9375 37.1144C25.9375 37.1821 25.8646 37.3592 25.776 37.5103C25.2135 38.4634 24.0521 39.3176 23.0729 39.4999C22.3021 39.6457 21.2552 39.703 20.6719 39.6353C19.4948 39.4999 18.5573 39.2446 17.6823 38.828C17 38.4946 16.0365 37.9165 16.0729 37.854C16.0937 37.8228 16.2187 37.8176 16.3906 37.8384C16.8177 37.8905 17.7656 37.8801 17.8229 37.8228C17.9167 37.729 17.6302 37.6769 16.5104 37.578C15.6875 37.5103 15.6458 37.4999 15.5312 37.3644C15.4635 37.2915 15.4219 37.203 15.4323 37.1665C15.4427 37.1301 15.8125 37.0988 16.6198 37.0832C17.3542 37.0676 17.7083 37.0415 17.5781 37.0207C17.2083 36.9478 16.3021 36.8749 15.8385 36.8749C15.5937 36.8749 15.3646 36.854 15.3333 36.8332C15.2448 36.7759 14.9427 36.1457 14.974 36.0936C14.9948 36.0624 15.3906 36.0571 16.0104 36.078C16.7031 36.0988 17.026 36.0936 17.0521 36.0519C17.1094 35.9582 16.5781 35.8749 15.651 35.8384L14.7656 35.8071L14.776 35.6561C14.8021 35.3384 14.776 35.3488 15.5885 35.3801C16.3385 35.4113 16.724 35.3801 16.7187 35.2863C16.7135 35.1926 16.4479 35.1509 15.651 35.1144L14.8698 35.078L14.8542 34.9165L14.8385 34.7499L15.3229 34.7238C15.5885 34.7082 16.4062 34.7238 17.1354 34.7551C17.8646 34.7863 18.5937 34.7915 18.75 34.7707C19.3385 34.6978 19.2865 34.5363 18.6719 34.5259C18.125 34.5207 15.875 34.4321 15.3281 34.3957L14.8437 34.3644V34.1874C14.8437 34.0936 14.8594 34.0051 14.8854 33.9946C14.9062 33.979 16.25 33.9946 17.8698 34.0259C20.2604 34.0676 20.8542 34.0676 20.9844 34.0103C21.1771 33.9321 21.1927 33.8644 21.0312 33.8332C20.8437 33.7915 16.6979 33.6926 15.7396 33.703L14.8698 33.7134L14.8542 33.5415L14.8333 33.3696L17.6771 33.4009C20.5156 33.4321 20.9635 33.4165 20.7083 33.2707C20.5469 33.1821 19.2448 33.1301 16.9375 33.1301L14.7865 33.1249L14.8021 32.9634L14.8177 32.8019L16.9531 32.8071C18.1302 32.8124 19.1719 32.8384 19.2708 32.8644C19.5885 32.9478 20.6198 33.0207 21.5729 33.0207C22.6927 33.0207 23.4948 32.9009 24.1354 32.6353C24.3646 32.5415 24.5833 32.4634 24.6094 32.4738C24.6406 32.479 24.6823 32.6769 24.7031 32.9217ZM25.6667 33.5363C26.0365 33.6509 26.6927 34.0884 26.9896 34.4217C27.3594 34.8384 27.7031 35.4113 28.2135 36.4582C29.1406 38.3592 29.2656 38.6196 29.375 38.9061C29.5052 39.2446 29.8698 39.9373 29.9844 40.0623C30.0885 40.1769 30.2031 40.1821 30.2865 40.0728C30.3385 39.9946 30.3854 40.0051 30.7448 40.1769C31.2135 40.4009 31.3698 40.4061 31.9115 40.2342C32.3542 40.0936 32.5729 39.9634 33.0365 39.5624C33.4271 39.2238 33.4687 39.1457 33.3333 39.0103C33.1302 38.8071 33.1458 38.6769 33.4115 38.3905C33.5469 38.2446 33.7604 38.0624 33.8854 37.9842C34.1458 37.8228 34.2135 37.6821 34.099 37.5676C33.9948 37.4634 33.875 37.5051 33.4531 37.8124C33.2604 37.9582 33.0833 38.0728 33.0573 38.0728C33.0312 38.0728 32.8594 37.9374 32.6771 37.7655C32.099 37.2342 31.3594 36.9321 30.8021 36.9999L30.5365 37.0311L30.3385 36.5467C30.2292 36.2863 30.0625 35.9113 29.9635 35.7186C29.7344 35.2551 29.7396 35.2082 30.0052 35.2082C30.3229 35.2082 30.5052 35.3176 30.9844 35.8019C31.3021 36.1196 31.4687 36.3384 31.6094 36.6196C31.8177 37.0467 31.9375 37.1196 32.0208 36.8801C32.0885 36.6926 32.0417 36.4999 31.8542 36.1665L31.724 35.9374L31.8385 35.8592C32.099 35.6926 32.5885 35.4999 32.8229 35.479C33.1562 35.4478 33.276 35.5363 33.6198 36.0676C33.8437 36.4061 34 36.5832 34.3906 36.8957C34.6615 37.1144 34.8958 37.328 34.9167 37.3696C34.9531 37.4738 35.2344 37.5936 35.5417 37.6301C35.9219 37.6821 36.0677 37.8592 36.1094 38.3176C36.1302 38.5103 36.1458 38.7967 36.1458 38.9426C36.1458 39.2499 36.099 39.2759 35.8333 39.1405C35.6927 39.0676 35.6615 39.0676 35.4844 39.1613C35.375 39.2186 35.1562 39.3957 35 39.5571C34.5729 39.9998 33.7656 40.5884 33.3542 40.7498C33.0365 40.8801 32.8958 40.9009 32.0885 40.9426C30.974 40.9998 30.3177 40.9478 29.8177 40.7603C29.2969 40.5623 29.0208 40.3644 28.5052 39.8228C27.9844 39.2811 27.6667 38.8696 27.3125 38.2915C26.6615 37.2238 26.2604 36.6769 25.75 36.1457L25.2083 35.5884V34.5103C25.2083 33.2967 25.1719 33.3801 25.6667 33.5363ZM14.4271 34.3019C14.4271 34.4374 14.401 34.4738 14.2917 34.4999C14.1354 34.5415 14.151 34.6561 14.3177 34.6769C14.4167 34.6926 14.4323 34.7238 14.4167 34.8853L14.401 35.078L13.8698 35.0936C13.4792 35.104 13.3333 35.0884 13.3333 35.0467C13.3333 35.0103 13.5573 34.7603 13.8333 34.4894C14.3594 33.9686 14.4271 33.9478 14.4271 34.3019ZM28.6406 34.2186C28.7135 34.2342 28.8125 34.3071 28.8646 34.3801C29.0052 34.5728 30.0052 36.8749 29.974 36.9321C29.9531 36.9582 29.8802 36.979 29.8021 36.979C29.724 36.979 29.5365 37.0415 29.3802 37.1092C29.224 37.1821 29.0781 37.2238 29.0573 37.203C29.0365 37.1821 28.875 36.8436 28.6927 36.4582C28.2865 35.5832 28 35.0728 27.6302 34.5571C27.474 34.3384 27.3437 34.1509 27.3437 34.1405C27.3437 34.1092 28.4896 34.1769 28.6406 34.2186ZM14.1302 35.5519C14.1823 35.6509 14.2083 35.7603 14.1927 35.7863C14.1719 35.8124 13.9323 35.8332 13.6458 35.8332C13.2292 35.8332 13.1302 35.8176 13.1042 35.7499C13.0625 35.6405 13.0625 35.4426 13.1094 35.4009C13.125 35.3801 13.3437 35.3644 13.5937 35.3644H14.0417L14.1302 35.5519ZM12.4896 35.7915C12.474 35.828 12.3854 35.8644 12.2865 35.8749C12.1198 35.8853 12.1146 35.8801 12.2083 35.8071C12.3333 35.7134 12.5156 35.703 12.4896 35.7915ZM14.5833 36.4165C14.6823 36.6092 14.75 36.7759 14.7396 36.7915C14.6927 36.8384 13.4844 36.8384 13.4427 36.7915C13.4167 36.7655 13.375 36.6353 13.3437 36.5051C13.3073 36.3696 13.2708 36.229 13.25 36.1821C13.2135 36.0832 13.4115 36.0519 14.0104 36.0624L14.401 36.0676L14.5833 36.4165ZM12.8646 36.4374C12.9219 36.6249 12.9531 36.8019 12.9375 36.828C12.8958 36.9009 12.7708 36.8853 12.625 36.7915C12.5052 36.7134 12.4896 36.7134 12.401 36.7915C12.3229 36.8592 12.1667 36.8749 11.3906 36.8749C10.8854 36.8749 10.4687 36.8592 10.4687 36.8332C10.4687 36.8124 10.7448 36.6405 11.0833 36.4478L11.6927 36.0936H12.224H12.7552L12.8646 36.4374ZM13.0417 37.1665C13.1146 37.3592 13.0781 37.4478 12.9219 37.4478C12.8021 37.4478 12.7656 37.4217 12.7448 37.3124C12.7292 37.2134 12.75 37.1665 12.8333 37.1353C12.9896 37.0728 13.0052 37.0728 13.0417 37.1665ZM14.9375 37.2134C15.0573 37.479 15.0312 37.4999 14.5885 37.4999C14.3646 37.4999 14.0417 37.4842 13.8646 37.4686C13.5781 37.4374 13.5469 37.4217 13.526 37.2967C13.5104 37.2238 13.5104 37.1457 13.526 37.1249C13.5365 37.0988 13.849 37.0832 14.2135 37.0832C14.875 37.0832 14.8802 37.0832 14.9375 37.2134ZM12.2917 37.2915V37.4478H11.3594H10.4271L10.3437 37.3176C10.2969 37.2499 10.2604 37.1769 10.2604 37.1613C10.2604 37.1457 10.7187 37.1353 11.276 37.1353H12.2917V37.2915ZM9.34896 37.3957C9.38542 37.4582 9.25 37.4582 9.0625 37.3957C8.94792 37.3592 8.95312 37.354 9.125 37.3488C9.22917 37.3436 9.33333 37.3644 9.34896 37.3957ZM9.07292 37.6874C9.25 37.703 10.0677 37.7342 10.8854 37.7499L12.3698 37.7863L12.4115 38.0676C12.4323 38.2238 12.4323 38.3696 12.4115 38.3905C12.3854 38.4061 12.1198 38.4113 11.8125 38.4009L11.25 38.3696L11.1198 38.1509C10.9792 37.9009 10.8594 37.8332 10.7448 37.9269C10.6927 37.9686 10.6771 38.0415 10.7031 38.1613L10.7344 38.3332H9.24479C8.42708 38.3332 7.76042 38.3228 7.76042 38.3071C7.76042 38.2186 7.98958 37.8488 8.14062 37.6926L8.3125 37.5051L8.52604 37.578C8.64583 37.6196 8.89062 37.6665 9.07292 37.6874ZM13.2083 38.0363C13.2708 38.3801 13.2552 38.4374 13.0937 38.4374C12.9531 38.4374 12.901 38.3436 12.8437 37.979L12.8125 37.7603H12.9844C13.1562 37.7603 13.1615 37.7655 13.2083 38.0363ZM15.1615 37.8488C15.2083 37.8957 15.3281 38.4426 15.2969 38.4738C15.2865 38.4842 14.9167 38.4738 14.474 38.453L13.6719 38.4113L13.6562 38.078L13.6406 37.7446L14.375 37.7707C14.7812 37.7863 15.1302 37.8176 15.1615 37.8488ZM16.4062 38.6821C17.8021 39.5103 18.8542 39.8696 20.4531 40.0519L20.9792 40.1144L20.776 40.5155C20.6094 40.8384 20.5625 40.9998 20.5156 41.4061C20.4844 41.6717 20.4687 41.9686 20.4844 42.0571C20.5 42.1509 20.6302 42.3801 20.776 42.578C20.9219 42.7707 21.0417 42.9478 21.0417 42.9686C21.0417 43.0415 20.6302 43.3332 20.599 43.2811C20.5833 43.2498 20.4479 43.229 20.3073 43.229C19.4844 43.229 18.3854 43.0155 17.7865 42.7394C17.3802 42.5519 16.9271 42.2655 16.9271 42.1926C16.9271 42.1665 17.0365 42.1353 17.1667 42.1196C17.401 42.0936 17.5521 42.0155 17.4844 41.9478C17.4687 41.9269 17.224 41.9009 16.9531 41.8853L16.4531 41.8592L16.2031 41.6353C15.9583 41.4165 15.7656 41.1144 15.8125 41.0311C15.8281 41.0103 15.9427 40.9894 16.0677 40.9894C16.1927 40.9894 16.4167 40.9634 16.5625 40.9321C17.026 40.8332 16.849 40.729 16.2135 40.729H15.8333L15.8229 39.9842C15.7969 38.4582 15.7969 38.3853 15.8802 38.3853C15.901 38.3853 16.1354 38.5155 16.4062 38.6821ZM10.5625 38.6249C10.8542 38.6509 10.8958 38.6717 10.9427 38.7863C11.099 39.203 10.9323 39.2759 9.89062 39.2394C8.89062 39.203 8.85417 39.1978 8.85417 39.0415C8.85417 38.9582 8.78125 38.854 8.63542 38.729L8.41146 38.5415L9.32292 38.5728C9.82292 38.5832 10.3802 38.6092 10.5625 38.6249ZM7.73437 38.7707C7.96354 38.8436 8.23437 38.9582 8.33333 39.0207L8.51562 39.1405L7.08333 39.1665C6.29687 39.1821 5.64583 39.203 5.64062 39.2082C5.57812 39.2551 5.64583 39.3749 5.74479 39.3957C5.80729 39.4113 6.63021 39.4321 7.57292 39.4478L9.28125 39.479L9.48437 39.6978C9.82292 40.078 9.83854 40.0728 8.55729 40.0363C7.93229 40.0155 6.86979 40.0207 6.19792 40.0467C5.52604 40.0676 4.96354 40.078 4.94792 40.0676C4.88542 40.0155 5.16667 39.6196 5.52083 39.2707C5.85937 38.9269 5.96354 38.8592 6.30208 38.7342C6.77604 38.5624 7.10937 38.5728 7.73437 38.7707ZM11.5625 38.6978C11.5625 38.7238 11.5417 38.7499 11.5104 38.7499C11.4844 38.7499 11.4583 38.7238 11.4583 38.6978C11.4583 38.6665 11.4844 38.6457 11.5104 38.6457C11.5417 38.6457 11.5625 38.6665 11.5625 38.6978ZM15.3333 38.9374C15.349 39.0728 15.3646 39.5415 15.3646 39.979V40.7811H14.9479C14.6302 40.7811 14.5312 40.7967 14.5312 40.854C14.5312 40.9426 14.6927 40.9894 15.0156 40.9894C15.1771 40.9894 15.2604 41.0103 15.2604 41.0519C15.2604 41.0884 15.099 41.2655 14.9062 41.4373L14.5521 41.7551L13.8281 41.7967C13.4271 41.8176 13.0573 41.854 13.0052 41.8853C12.8437 41.9686 12.9635 42.0311 13.2969 42.0311C13.6927 42.0311 13.651 42.078 13.0729 42.2915C11.9427 42.7082 11.4479 42.828 10.8333 42.8332C10.3646 42.8384 10.3229 42.828 9.97396 42.6509C9.59375 42.453 9.32812 42.2655 9.375 42.2238C9.39062 42.2134 9.98958 42.2238 10.7135 42.2551C11.724 42.2967 12.0729 42.2967 12.2344 42.2446C12.3542 42.2134 12.4479 42.1665 12.4479 42.1405C12.4479 42.0884 11.6406 42.0415 10.0781 41.9998L8.88021 41.9686L7.96875 41.5519C7.46875 41.3228 7.03646 41.1144 7.00521 41.0884C6.9375 41.0259 7.76562 41.0311 9.00521 41.0988C9.98958 41.1561 10.0312 41.1613 10.25 41.3019C10.5885 41.5259 11.375 41.8228 11.724 41.8592C12.0156 41.8905 12.3125 41.8488 12.8125 41.7082C12.9115 41.6821 13.2344 41.5363 13.5312 41.3957C14.1094 41.1092 14.1875 41.0259 14.25 40.6248C14.2708 40.4998 14.3281 40.3644 14.3802 40.3228C14.4323 40.2759 14.4583 40.2238 14.4323 40.2082C14.4062 40.1926 14.375 40.0311 14.3698 39.8436C14.349 39.5259 14.3542 39.5103 14.474 39.479C14.6875 39.4269 14.651 39.3384 14.4062 39.3071C14.2187 39.2811 14.1302 39.229 13.9375 39.0259L13.7031 38.7759L14.3125 38.7499C14.6458 38.729 15.0052 38.7134 15.1094 38.7082C15.2969 38.6978 15.2969 38.6978 15.3333 38.9374ZM10.3125 39.5311C10.3125 39.5936 10.0781 39.6561 10.0052 39.6092C9.89062 39.5415 9.95312 39.479 10.1302 39.479C10.2292 39.479 10.3125 39.4999 10.3125 39.5311ZM23.1927 40.0571C23.3281 40.1248 23.75 40.5259 23.75 40.5832C23.75 40.604 23.6198 40.6248 23.4635 40.6248C23.25 40.6248 23.1354 40.5936 22.9896 40.4946C22.599 40.229 22.1979 40.2811 21.9167 40.6301C21.7656 40.8176 21.7344 40.8332 21.5 40.8332C21.2083 40.8332 21.151 40.7603 21.25 40.5155C21.3646 40.2394 21.6042 40.104 21.9844 40.0988C22.1667 40.0988 22.4219 40.078 22.5521 40.0571C22.901 39.9946 23.0677 39.9946 23.1927 40.0571ZM9.91146 40.5832C9.93229 40.729 9.9375 40.854 9.93229 40.8592C9.88542 40.8905 5.47917 40.7967 5.43229 40.7655C5.39583 40.7394 5.23958 40.7655 5.08333 40.8123C4.70833 40.9321 4.61458 40.8905 4.65104 40.6353C4.67187 40.5311 4.72396 40.4113 4.77604 40.3801C4.84375 40.328 5.44271 40.3123 7.375 40.3123H9.88021L9.91146 40.5832ZM22.7917 40.7863C22.8385 40.8228 22.901 40.9321 22.9427 41.0259C23.0677 41.3176 22.9271 41.5415 22.5885 41.5988C22.3802 41.6301 22.224 41.5571 22.1042 41.3748C22.0312 41.2655 22.026 41.2134 22.0781 41.0415C22.1562 40.7811 22.3177 40.6613 22.5417 40.6978C22.6406 40.7134 22.75 40.7551 22.7917 40.7863ZM24.0312 41.104C24.0469 41.1717 24.0625 41.4165 24.0625 41.6561C24.0625 42.0311 24.0417 42.1248 23.9062 42.3957C23.8229 42.5676 23.75 42.729 23.75 42.7603C23.75 42.7915 23.875 42.8696 24.026 42.9373C24.3802 43.0936 24.5625 43.3071 24.6354 43.6717C24.7656 44.2967 24.4896 44.7551 23.7656 45.1248C23.1667 45.4269 22.4479 45.4842 21.7604 45.2811C21.4115 45.1769 20.9948 44.7707 20.8958 44.4373C20.7969 44.1092 20.9219 43.7134 21.2292 43.3853C21.3698 43.2342 21.4583 43.0936 21.4583 43.0155C21.4583 42.9478 21.3854 42.6665 21.3021 42.3957C21.2135 42.1248 21.1302 41.729 21.1094 41.5207L21.0781 41.1457H21.3906C21.6979 41.1457 21.7083 41.1509 21.7344 41.3019C21.7552 41.3853 21.8437 41.5363 21.9375 41.6405C22.0833 41.7915 22.1562 41.828 22.401 41.854C22.8958 41.9113 23.2812 41.6301 23.2812 41.2186C23.2812 41.1301 23.2969 41.0415 23.3177 41.0259C23.3333 41.0051 23.4948 40.9894 23.6771 40.9894C23.9687 40.9894 24 40.9998 24.0312 41.104ZM6.41667 41.4061C6.89583 41.5676 7.58333 41.8644 7.54687 41.8957C7.53646 41.9061 6.83854 41.9269 6.00521 41.9426L4.47917 41.9738V41.854C4.47917 41.7082 4.6875 41.5103 5.02604 41.3332C5.25521 41.2134 5.32812 41.1978 5.625 41.2238C5.8125 41.2394 6.16667 41.3228 6.41667 41.4061ZM3.60417 44.2186L3.45833 44.9738L3.28125 45.0311C3.04687 45.1092 3.02604 45.203 3.22917 45.2446C3.39062 45.2759 3.39583 45.2811 3.36979 45.5051C3.35937 45.6301 3.33333 45.7498 3.31771 45.7655C3.28646 45.7967 2.27604 45.8801 2.24479 45.854C2.21875 45.8332 2.91667 44.5103 3.15104 44.1405C3.40104 43.7498 3.71354 43.3592 3.73437 43.4165C3.74479 43.4426 3.68229 43.8019 3.60417 44.2186ZM2.85417 46.0936H3.28646L3.25 46.4946C3.22917 46.7186 3.20833 46.9113 3.19792 46.9217C3.18229 46.9373 2.875 46.9425 2.51042 46.9425C1.74479 46.9373 1.79167 46.9946 2.04167 46.3384C2.19271 45.9478 2.19792 45.9373 2.30729 46.0155C2.38542 46.0676 2.55208 46.0936 2.85417 46.0936ZM23.3073 46.1613C23.4844 46.2603 23.5156 46.3071 23.5312 46.4686C23.5521 46.7342 23.4375 46.7863 23.099 46.6769C22.8542 46.5936 22.8385 46.578 22.8229 46.3905C22.7917 46.0363 22.9531 45.9582 23.3073 46.1613ZM23.2812 47.1092C23.5312 47.2394 23.5417 47.2498 23.5417 47.4686C23.5417 47.6665 23.526 47.703 23.4167 47.729C23.2552 47.7707 23.1354 47.7238 22.9583 47.5623C22.8437 47.4582 22.8125 47.38 22.8125 47.203C22.8125 46.9321 22.8958 46.9113 23.2812 47.1092ZM2.80208 47.2186L3.1875 47.2498L3.15104 47.4894C3.13021 47.6248 3.10937 47.7394 3.10937 47.7394C3.10417 47.7446 2.76042 47.7655 2.34896 47.7863L1.59896 47.8228L1.63542 47.6144C1.65104 47.4946 1.6875 47.3436 1.71354 47.2759C1.76562 47.1405 1.79687 47.1405 2.80208 47.2186ZM2.44792 48.0467H3.09896V48.3071C3.09375 48.7707 3.13542 48.7498 2.1875 48.7498C1.23958 48.7498 1.30208 48.7863 1.44271 48.2759C1.52604 47.9738 1.53646 47.9634 1.66146 48.005C1.73437 48.0259 2.08854 48.0467 2.44792 48.0467ZM23.3177 48.0467C23.5573 48.1457 23.5937 48.203 23.5937 48.4478C23.5937 48.6353 23.5833 48.6457 23.4375 48.6457C23.2448 48.6457 22.974 48.5363 22.849 48.4165C22.8021 48.3644 22.7604 48.2446 22.7604 48.1457C22.7604 47.979 22.7708 47.9686 22.9427 47.9686C23.0469 47.9686 23.2135 48.005 23.3177 48.0467ZM23.4531 48.9425C23.5729 49.005 23.5937 49.0415 23.5937 49.2446V49.479H23.3646C23.1094 49.479 22.8646 49.4009 22.8021 49.3071C22.75 49.2238 22.8125 48.8905 22.8854 48.8436C22.9583 48.7915 23.2656 48.8488 23.4531 48.9425ZM2.38542 49.0103H3.07292V49.2186V49.4269H2.13542H1.19792V49.3019C1.19792 49.229 1.21875 49.1144 1.24479 49.0467C1.29167 48.9269 1.3125 48.9217 1.49479 48.9634C1.60417 48.9894 2.00521 49.0103 2.38542 49.0103Z" fill="white"/>
<path d="M10.823 8.32785C10.1772 8.34869 9.823 8.38515 9.78654 8.42161C9.73445 8.47369 9.75008 8.49452 9.84904 8.53098C9.91675 8.55702 10.9688 8.59348 12.1876 8.60911C13.4063 8.62473 14.6459 8.6664 14.948 8.69244C15.2501 8.72369 15.7553 8.77578 16.0678 8.80703C16.3855 8.83828 16.9063 8.89557 17.2292 8.93724C17.9167 9.02057 18.4688 9.03099 18.5157 8.95807C18.5678 8.87474 18.3074 8.80182 17.5782 8.69244C15.547 8.39556 12.9324 8.25494 10.823 8.32785Z" fill="white"/>
<path d="M18.7238 12.682C17.2967 12.8435 16.7654 12.932 16.6352 13.031C16.3279 13.2758 16.5883 13.3383 17.406 13.2289C18.8644 13.0362 20.4842 12.9685 21.2133 13.0778C21.6613 13.1456 21.9477 13.0883 22.1248 12.9008C22.281 12.7341 22.229 12.5778 22.0363 12.6403C21.9633 12.6612 21.7706 12.6768 21.6144 12.6716C21.4581 12.6716 20.8852 12.656 20.3383 12.6403C19.6717 12.6195 19.1456 12.6351 18.7238 12.682Z" fill="white"/>
<path d="M26.1979 12.7865C25.8958 12.823 25.5417 12.8803 25.4115 12.9115C25.2448 12.948 25.1146 12.948 24.974 12.9115C24.8229 12.8699 24.7604 12.8699 24.7083 12.9272C24.6458 12.9897 24.6511 13.0157 24.7188 13.1199C24.8594 13.3178 25.0833 13.3803 25.4427 13.3282C25.6146 13.3021 25.9219 13.2553 26.1198 13.2292C26.3229 13.198 27 13.1615 27.6302 13.1459C28.5469 13.1199 28.7917 13.0938 28.8698 13.0313C28.9792 12.9324 28.9792 12.8959 28.875 12.7917C28.8073 12.7188 28.6354 12.7084 27.7708 12.7136C27.2083 12.7188 26.5 12.7501 26.1979 12.7865Z" fill="white"/>
<path d="M19.3229 13.9949C18.375 14.047 16.552 14.3907 16.2343 14.573C16.151 14.6251 16.0364 14.7397 15.9791 14.8335C15.8854 14.9845 15.875 15.0626 15.901 15.3803C15.9583 16.0522 16.0937 16.2918 16.5833 16.6147C17.7916 17.396 19.0781 17.4949 20.2968 16.9012C20.9791 16.5678 21.5156 15.797 21.552 15.0939C21.5677 14.8751 21.552 14.6824 21.5156 14.6147C21.401 14.4116 21.125 14.2762 20.5468 14.146C19.8489 13.9949 19.6927 13.9741 19.3229 13.9949ZM20.6406 14.5939C21.1406 14.7241 21.177 14.7762 21.0937 15.2449C20.9843 15.8908 20.6666 16.3074 20.0781 16.6043C19.3958 16.9428 18.5885 17.0053 17.7968 16.7762C16.9427 16.5262 16.4531 16.172 16.3593 15.7241C16.2812 15.3751 16.2864 14.9741 16.3698 14.9116C16.4791 14.8282 18.0885 14.521 18.6562 14.4793C19.3958 14.422 20.1562 14.4637 20.6406 14.5939Z" fill="white"/>
<path d="M19.2551 15.0417C19.1354 15.1719 19.1458 15.3438 19.2708 15.4688C19.3958 15.5938 19.5208 15.599 19.677 15.4896C19.8281 15.3855 19.8385 15.0782 19.6926 15.0001C19.5364 14.9219 19.3489 14.9376 19.2551 15.0417Z" fill="white"/>
<path d="M25.8489 14.0574C25.1146 14.2553 24.6771 14.5678 24.4323 15.0626C24.25 15.4168 24.2396 15.5418 24.3437 15.8907C24.526 16.4793 24.8229 16.8282 25.3854 17.0887C25.8073 17.2866 26.2343 17.3647 26.7187 17.3282C27.5937 17.2605 28.7083 16.4532 28.9062 15.7293C28.9895 15.4376 28.9687 14.9428 28.8593 14.7137C28.7395 14.448 28.401 14.1407 28.1406 14.0574C28.0312 14.0262 27.5573 13.9897 27.0833 13.9793C26.3593 13.9637 26.1666 13.9741 25.8489 14.0574ZM28.177 14.4793C28.4322 14.6199 28.6458 14.9324 28.6458 15.1668C28.6458 15.4116 28.4322 15.8959 28.2135 16.1303C27.9687 16.3959 27.3698 16.7762 27.0052 16.9012C26.5156 17.0626 25.7344 16.922 25.1302 16.5574C24.7708 16.3439 24.5833 16.0209 24.5833 15.6095C24.5833 14.9689 25.026 14.6095 26.1198 14.3543C26.1771 14.3387 26.6093 14.3335 27.0833 14.3387C27.8958 14.3491 27.9583 14.3543 28.177 14.4793Z" fill="white"/>
<path d="M26.3539 14.9946C26.2341 15.2238 26.3279 15.4165 26.5622 15.4165C26.6351 15.4165 26.7237 15.3905 26.7601 15.354C26.7966 15.3175 26.8226 15.229 26.8226 15.1561C26.8226 15.0832 26.7966 14.9946 26.7601 14.9582C26.6612 14.8592 26.4164 14.88 26.3539 14.9946Z" fill="white"/>
<path d="M23.4322 15.7914C23.3385 15.9685 23.4114 17.8904 23.5364 18.6717C23.6822 19.5415 23.8645 20.229 24.0833 20.729C24.2864 21.1873 24.2864 21.2654 24.0833 21.505C23.8124 21.8331 24.1614 21.9529 24.4583 21.6404C24.7239 21.354 24.7291 21.1977 24.4791 20.6612C24.026 19.6821 23.7499 18.1248 23.7499 16.5519C23.7499 15.9164 23.703 15.6769 23.5728 15.6769C23.526 15.6769 23.4635 15.7289 23.4322 15.7914Z" fill="white"/>
<path d="M23.1458 21.2187C23.0989 21.3385 23.1667 21.4062 23.3385 21.4062C23.474 21.4062 23.4948 21.3906 23.4792 21.2865C23.4583 21.1458 23.1927 21.0885 23.1458 21.2187Z" fill="white"/>
<path d="M22.6667 24.7396C22.3958 24.7969 22.3438 24.8281 22.3438 24.9271C22.3438 25.2396 24.2031 25.2917 24.3958 24.9844C24.4375 24.9219 24.4375 24.8698 24.3958 24.8021C24.3438 24.7239 24.2396 24.7135 23.6146 24.7031C23.2188 24.7031 22.7917 24.7187 22.6667 24.7396Z" fill="white"/>
<path d="M14.8177 29.948C14.7969 29.9844 14.8073 30.0313 14.8438 30.0521C15 30.1511 18.7917 30.2345 18.8854 30.1407C19.0156 30.0105 18.4323 29.9532 16.5052 29.9167C15.2032 29.8855 14.849 29.8907 14.8177 29.948Z" fill="white"/>
<path d="M17.5782 30.828C16.8907 30.8436 16.297 30.8801 16.2657 30.9009C16.0782 31.0207 16.2918 31.0415 17.8126 31.0415C19.4063 31.0415 19.974 30.9946 19.9324 30.8696C19.9115 30.7967 19.3907 30.7863 17.5782 30.828Z" fill="white"/>
<path d="M22.5261 43.6977C22.3594 43.7602 22.2813 43.8852 22.3021 44.0467C22.3125 44.1612 22.3698 44.2185 22.5521 44.3175C22.7709 44.432 22.8021 44.4373 22.9428 44.3696C23.073 44.3071 23.099 44.2602 23.1146 44.0779C23.1303 43.8748 23.1146 43.8488 22.9584 43.7498C22.7761 43.6404 22.6928 43.63 22.5261 43.6977Z" fill="white"/>
<path d="M34.146 43.4215C34.1304 43.4736 34.1043 43.6299 34.0887 43.7757C34.0418 44.1299 33.9377 44.5361 33.6929 45.333C33.3127 46.5726 33.1252 47.8174 33.1095 49.1924L33.0991 49.9736H33.3075H33.5158L33.5418 49.0622L33.5679 48.1507L33.7814 47.8643C34.1043 47.4268 34.6825 46.484 34.8596 46.1038C35.0523 45.6924 35.1096 45.2809 34.9794 45.2288C34.8492 45.1768 34.7502 45.2913 34.521 45.7497C34.2346 46.3278 33.9064 46.8747 33.8491 46.8747C33.771 46.8747 33.8543 46.4893 34.1512 45.4424C34.5419 44.0726 34.5887 43.333 34.271 43.333C34.2189 43.333 34.1616 43.3747 34.146 43.4215Z" fill="white"/>
<path d="M10.9793 43.7549C10.9272 43.781 10.8855 43.8383 10.8855 43.8799C10.8855 43.9789 10.724 44.0622 10.5365 44.0622C10.4584 44.0622 10.3595 44.0831 10.3178 44.1091C10.2032 44.182 10.3386 44.2289 10.6407 44.2133L10.9115 44.1976L10.9688 44.557C11.1199 45.4737 11.1928 47.8643 11.099 48.958L11.0678 49.3486L10.8907 49.3747C10.6459 49.4111 10.6251 49.5153 10.8543 49.557C11.0209 49.5882 11.0365 49.6143 11.0522 49.7861C11.0678 49.9736 11.0678 49.9736 11.3334 49.9893L11.599 50.0049L11.6355 49.7913C11.6615 49.6299 11.6928 49.583 11.7709 49.583C11.8282 49.583 11.8751 49.6195 11.8751 49.6611C11.8751 49.7653 12.0522 49.7601 12.1407 49.6559C12.2084 49.5778 12.3751 49.5726 13.8543 49.5934C15.4845 49.6247 16.3699 49.5882 16.4688 49.4893C16.5522 49.4059 16.2449 49.3851 14.2188 49.3226C13.2032 49.2861 12.3647 49.2549 12.3595 49.2497C12.349 49.2445 12.4063 49.1091 12.4897 48.9528L12.6303 48.6716L14.5938 48.6455C16.3647 48.6195 16.6928 48.5986 16.6043 48.5153C16.5522 48.4632 14.9949 48.3851 13.8959 48.3851C13.2709 48.3851 12.7605 48.3643 12.7605 48.3434C12.7605 48.3226 12.8126 48.1611 12.8803 47.9945L13.0001 47.682L13.4688 47.6664C14.5886 47.6351 16.2865 47.5049 16.4168 47.4476C16.5782 47.3695 16.5626 47.2809 16.3907 47.3122C16.3282 47.3278 15.5626 47.3539 14.6928 47.3695L13.1095 47.4007L13.1407 47.2497C13.1824 47.0414 13.0834 46.9112 12.8907 46.9372C12.7657 46.9476 12.7136 46.9997 12.6095 47.2028C12.4949 47.432 12.474 47.4476 12.2865 47.4476C12.1772 47.4476 12.0834 47.432 12.0834 47.4164C12.0834 47.3643 12.2918 46.656 12.3543 46.4945C12.3959 46.3903 12.4428 46.3539 12.547 46.3539C12.6199 46.3539 13.1615 46.3122 13.7501 46.2705C14.3386 46.2237 15.0938 46.1716 15.4272 46.1508C16.0105 46.1195 16.1563 46.0883 16.073 45.9997C16.0209 45.9476 14.599 45.9528 13.4793 46.0101C12.7918 46.0466 12.5522 46.0414 12.5522 45.9997C12.5522 45.9633 12.6147 45.7862 12.6876 45.6039L12.8178 45.2706L14.2605 45.2445C15.7188 45.2133 16.6511 45.1456 16.8022 45.0622C16.8543 45.0362 16.1251 44.9997 14.9428 44.9789C13.8751 44.9581 12.9897 44.932 12.9793 44.9216C12.9636 44.9112 12.9845 44.8278 13.0105 44.7393C13.0886 44.5206 13.0418 44.4164 12.8699 44.4372C12.7657 44.4476 12.698 44.5153 12.5886 44.7237L12.4428 44.9997H11.9793H11.5209L11.4897 44.8018C11.474 44.6976 11.448 44.4997 11.4272 44.3643L11.3959 44.1247L14.3022 44.1039C17.1199 44.0831 17.5938 44.057 17.3907 43.9268C17.349 43.9008 16.0209 43.8747 14.3126 43.8695C11.6511 43.8643 11.2918 43.8539 11.2188 43.781C11.1251 43.682 11.099 43.682 10.9793 43.7549ZM12.3438 45.281C12.3438 45.2914 12.2657 45.4841 12.172 45.7133C12.0053 46.0935 11.9845 46.1195 11.823 46.1351C11.599 46.156 11.5626 46.0935 11.5626 45.6351V45.2601H11.9532C12.1668 45.2601 12.3438 45.2706 12.3438 45.281ZM11.8751 46.4372C11.8751 46.4528 11.8386 46.5987 11.7918 46.7601C11.7188 46.9997 11.698 47.0362 11.6615 46.9528C11.6407 46.8955 11.6199 46.7497 11.6199 46.6247C11.6147 46.4268 11.6251 46.406 11.7449 46.406C11.8178 46.406 11.8751 46.4216 11.8751 46.4372ZM12.3907 47.7966C12.3907 47.8487 12.349 48.0049 12.3022 48.1507C12.224 48.3851 12.198 48.4111 12.047 48.4268C11.9115 48.4424 11.8751 48.4268 11.8751 48.3486C11.8751 48.2653 11.948 47.9528 12.0053 47.7705C12.0209 47.7393 12.1095 47.708 12.2136 47.708C12.3543 47.708 12.3959 47.7289 12.3907 47.7966ZM12.1355 48.7341C12.1355 48.7601 12.0886 48.8903 12.0365 49.0361C11.9636 49.2288 11.9063 49.3018 11.823 49.3122C11.7136 49.333 11.7084 49.3174 11.7449 49.0518C11.7918 48.7028 11.797 48.6976 11.9845 48.6976C12.0678 48.6976 12.1355 48.7132 12.1355 48.7341Z" fill="white"/>
</svg>
